<?xml version="1.0" encoding="utf-8"?>
<!-- Generator: Adobe Illustrator 19.1.0, SVG Export Plug-In . SVG Version: 6.00 Build 0)  -->
<svg version="1.1" id="Layer_1" xmlns="http://www.w3.org/2000/svg" xmlns:xlink="http://www.w3.org/1999/xlink" x="0px" y="0px"
	 viewBox="-49 141 512 512" style="enable-background:new -49 141 512 512;" xml:space="preserve">
<style type="text/css">
	.st0{fill:#8C8C8C;}
</style>
<g>
	<path class="st0" d="M221.2,289.9C221.2,290,221.1,290,221.2,289.9v0.1V289.9z"/>
	<path class="st0" d="M271,307c0-43.2-15-93.2-24-133.7V173h-8l-0.2,116.9c0,6.1-2.9,11.1-9,11.1c-5.7,0-8-4.3-8.6-9.9
		c-0.1-0.4,0-0.8,0-1.2L210.9,173h-8l-9,117l-0.1,1.1c-0.6,5.6-3.7,9.9-9.5,9.9c-6.1,0-9.1-5-9.1-11.1L174.8,173h-8
		C158,214,143,263.9,143,307.1c0,25.7,14.6,48.1,36.7,58.2c11.2,5.1,11.3,10.3,11.3,10.3s-16,201.7-16,213.1c0,11.4,4,18.5,9.5,24
		s14.2,8.2,22.4,8.2c0.1,0,0.1,0,0.2,0s0.1,0,0.2,0c8.2,0,16.8-2.7,22.4-8.2c5.5-5.5,9.3-10.9,9.3-24s-16-213.1-16-213.1
		s-1-5,11.4-10.6C256,355.2,271,332.8,271,307z"/>
</g>
</svg>
